<svg xmlns="http://www.w3.org/2000/svg" width="163" height="68" fill="none" viewBox="0 0 163 68"><path fill="#12292F" d="M14.3145 31.4492C14.3145 32.6341 14.0273 33.6641 13.4531 34.5391C12.8789 35.4141 12.0404 36.0885 10.9375 36.5625C9.84375 37.0365 8.51302 37.2734 6.94531 37.2734C6.2526 37.2734 5.57357 37.2279 4.9082 37.1367C4.25195 37.0456 3.61849 36.9134 3.00781 36.7402C2.40625 36.5579 1.83203 36.3346 1.28516 36.0703V32.1328C2.23307 32.5521 3.21745 32.9303 4.23828 33.2676C5.25911 33.6048 6.27083 33.7734 7.27344 33.7734C7.96615 33.7734 8.52214 33.6823 8.94141 33.5C9.36979 33.3177 9.67969 33.0671 9.87109 32.748C10.0625 32.429 10.1582 32.0645 10.1582 31.6543C10.1582 31.153 9.98958 30.7246 9.65234 30.3691C9.3151 30.0137 8.85026 29.681 8.25781 29.3711C7.67448 29.0612 7.01367 28.7285 6.27539 28.373C5.81055 28.1543 5.30469 27.89 4.75781 27.5801C4.21094 27.2611 3.69141 26.8737 3.19922 26.418C2.70703 25.9622 2.30143 25.4108 1.98242 24.7637C1.67253 24.1074 1.51758 23.3236 1.51758 22.4121C1.51758 21.2181 1.79102 20.1973 2.33789 19.3496C2.88477 18.502 3.66406 17.8548 4.67578 17.4082C5.69661 16.9525 6.89974 16.7246 8.28516 16.7246C9.32422 16.7246 10.3132 16.8477 11.252 17.0938C12.1999 17.3307 13.1888 17.6771 14.2188 18.1328L12.8516 21.4277C11.931 21.054 11.1061 20.7669 10.377 20.5664C9.64779 20.3568 8.90495 20.252 8.14844 20.252C7.61979 20.252 7.16862 20.3385 6.79492 20.5117C6.42122 20.6758 6.13867 20.9128 5.94727 21.2227C5.75586 21.5234 5.66016 21.8743 5.66016 22.2754C5.66016 22.7493 5.79688 23.1504 6.07031 23.4785C6.35286 23.7975 6.77214 24.1074 7.32812 24.4082C7.89323 24.709 8.59505 25.0599 9.43359 25.4609C10.4544 25.944 11.3249 26.4499 12.0449 26.9785C12.7741 27.498 13.3346 28.1133 13.7266 28.8242C14.1185 29.526 14.3145 30.401 14.3145 31.4492ZM33.0564 37H28.8318V28.373H20.9158V37H16.6775V17.0117H20.9158V24.8457H28.8318V17.0117H33.0564V37ZM54.9976 26.9785C54.9976 28.5189 54.8062 29.9225 54.4234 31.1895C54.0405 32.4473 53.4572 33.5319 52.6734 34.4434C51.8986 35.3548 50.9142 36.0566 49.7202 36.5488C48.5262 37.0319 47.1135 37.2734 45.482 37.2734C43.8504 37.2734 42.4377 37.0319 41.2437 36.5488C40.0497 36.0566 39.0607 35.3548 38.2769 34.4434C37.5021 33.5319 36.9234 32.4427 36.5405 31.1758C36.1577 29.9089 35.9663 28.5007 35.9663 26.9512C35.9663 24.8822 36.3036 23.082 36.978 21.5508C37.6616 20.0104 38.7098 18.8164 40.1226 17.9688C41.5353 17.1211 43.3309 16.6973 45.5093 16.6973C47.6786 16.6973 49.4605 17.1211 50.855 17.9688C52.2586 18.8164 53.2977 20.0104 53.9722 21.5508C54.6558 23.0911 54.9976 24.9004 54.9976 26.9785ZM40.4097 26.9785C40.4097 28.373 40.5829 29.5762 40.9292 30.5879C41.2847 31.5905 41.8361 32.3652 42.5835 32.9121C43.3309 33.4499 44.2971 33.7188 45.482 33.7188C46.6851 33.7188 47.6603 33.4499 48.4077 32.9121C49.1551 32.3652 49.6974 31.5905 50.0347 30.5879C50.381 29.5762 50.5542 28.373 50.5542 26.9785C50.5542 24.8822 50.1623 23.2324 49.3784 22.0293C48.5946 20.8262 47.3049 20.2246 45.5093 20.2246C44.3153 20.2246 43.34 20.498 42.5835 21.0449C41.8361 21.5827 41.2847 22.3574 40.9292 23.3691C40.5829 24.3717 40.4097 25.5749 40.4097 26.9785ZM64.2649 17.0117C66.8444 17.0117 68.7265 17.5677 69.9114 18.6797C71.0963 19.7826 71.6888 21.3047 71.6888 23.2461C71.6888 24.1211 71.5566 24.9596 71.2923 25.7617C71.0279 26.5547 70.595 27.2611 69.9934 27.8809C69.401 28.5007 68.608 28.9928 67.6145 29.3574C66.621 29.7129 65.3951 29.8906 63.9368 29.8906H62.1184V37H57.8802V17.0117H64.2649ZM64.0462 20.4844H62.1184V26.418H63.513C64.3059 26.418 64.9941 26.3132 65.5774 26.1035C66.1608 25.8939 66.6119 25.5658 66.9309 25.1191C67.2499 24.6725 67.4095 24.0983 67.4095 23.3965C67.4095 22.4121 67.136 21.6829 66.5891 21.209C66.0423 20.7259 65.1946 20.4844 64.0462 20.4844ZM83.212 37L76.4991 19.3086H76.3897C76.4261 19.6823 76.458 20.138 76.4854 20.6758C76.5127 21.2135 76.5355 21.8014 76.5537 22.4395C76.572 23.0684 76.5811 23.7109 76.5811 24.3672V37H74.4209V17.0117H77.8662L84.1963 33.6367H84.292L90.7178 17.0117H94.1358V37H91.8389V24.2031C91.8389 23.6107 91.848 23.0182 91.8662 22.4258C91.8845 21.8242 91.9073 21.2591 91.9346 20.7305C91.962 20.1927 91.9893 19.7279 92.0166 19.3359H91.9073L85.1123 37H83.212ZM115.68 26.9785C115.68 28.5189 115.485 29.9225 115.093 31.1895C114.701 32.4473 114.117 33.5319 113.343 34.4434C112.577 35.3457 111.624 36.043 110.485 36.5352C109.346 37.0273 108.024 37.2734 106.52 37.2734C104.971 37.2734 103.617 37.0273 102.46 36.5352C101.311 36.043 100.354 35.3411 99.5887 34.4297C98.8322 33.5182 98.2625 32.429 97.8797 31.1621C97.506 29.8952 97.3191 28.4915 97.3191 26.9512C97.3191 24.9095 97.6564 23.1185 98.3309 21.5781C99.0053 20.0378 100.026 18.8392 101.393 17.9824C102.77 17.1257 104.492 16.6973 106.561 16.6973C108.539 16.6973 110.203 17.1211 111.552 17.9688C112.91 18.8164 113.935 20.0104 114.628 21.5508C115.33 23.082 115.68 24.8913 115.68 26.9785ZM99.7664 26.9785C99.7664 28.6738 100.008 30.1413 100.491 31.3809C100.974 32.6204 101.712 33.5775 102.706 34.252C103.708 34.9264 104.98 35.2637 106.52 35.2637C108.07 35.2637 109.337 34.9264 110.321 34.252C111.315 33.5775 112.048 32.6204 112.522 31.3809C112.996 30.1413 113.233 28.6738 113.233 26.9785C113.233 24.3991 112.691 22.3848 111.606 20.9355C110.531 19.4772 108.849 18.748 106.561 18.748C105.012 18.748 103.736 19.0807 102.733 19.7461C101.731 20.4115 100.983 21.3594 100.491 22.5898C100.008 23.8112 99.7664 25.2741 99.7664 26.9785ZM124.278 17.0117C125.919 17.0117 127.272 17.2168 128.338 17.627C129.414 18.028 130.216 18.6432 130.745 19.4727C131.273 20.3021 131.538 21.3594 131.538 22.6445C131.538 23.7018 131.346 24.5859 130.963 25.2969C130.581 25.9987 130.079 26.5684 129.46 27.0059C128.84 27.4434 128.179 27.7806 127.477 28.0176L132.96 37H130.253L125.358 28.6602H121.202V37H118.878V17.0117H124.278ZM124.141 19.0215H121.202V26.6914H124.374C126.005 26.6914 127.204 26.3587 127.969 25.6934C128.744 25.028 129.131 24.0482 129.131 22.7539C129.131 21.3958 128.721 20.4342 127.901 19.8691C127.09 19.304 125.836 19.0215 124.141 19.0215ZM146.028 37H134.899V17.0117H146.028V19.0625H137.223V25.5293H145.522V27.5527H137.223V34.9492H146.028V37Z"/><path fill="#6A7B7B" d="M8.7832 50.7207C8.7832 51.2285 8.65625 51.6621 8.40234 52.0215C8.15234 52.377 7.80078 52.6484 7.34766 52.8359C6.89453 53.0234 6.36133 53.1172 5.74805 53.1172C5.42383 53.1172 5.11719 53.1016 4.82812 53.0703C4.53906 53.0391 4.27344 52.9941 4.03125 52.9355C3.78906 52.877 3.57617 52.8047 3.39258 52.7188V51.7637C3.68555 51.8848 4.04297 51.998 4.46484 52.1035C4.88672 52.2051 5.32812 52.2559 5.78906 52.2559C6.21875 52.2559 6.58203 52.1992 6.87891 52.0859C7.17578 51.9688 7.40039 51.8027 7.55273 51.5879C7.70898 51.3691 7.78711 51.1074 7.78711 50.8027C7.78711 50.5098 7.72266 50.2656 7.59375 50.0703C7.46484 49.8711 7.25 49.6914 6.94922 49.5312C6.65234 49.3672 6.24609 49.1934 5.73047 49.0098C5.36719 48.8809 5.04688 48.7402 4.76953 48.5879C4.49219 48.4316 4.25977 48.2559 4.07227 48.0605C3.88477 47.8652 3.74219 47.6387 3.64453 47.3809C3.55078 47.123 3.50391 46.8281 3.50391 46.4961C3.50391 46.0391 3.61914 45.6484 3.84961 45.3242C4.08398 44.9961 4.40625 44.7461 4.81641 44.5742C5.23047 44.3984 5.70508 44.3105 6.24023 44.3105C6.69727 44.3105 7.11914 44.3535 7.50586 44.4395C7.89648 44.5254 8.25391 44.6406 8.57812 44.7852L8.26758 45.6406C7.95898 45.5117 7.63086 45.4043 7.2832 45.3184C6.93945 45.2324 6.58398 45.1895 6.2168 45.1895C5.84961 45.1895 5.53906 45.2441 5.28516 45.3535C5.03516 45.459 4.84375 45.6094 4.71094 45.8047C4.57812 46 4.51172 46.2324 4.51172 46.502C4.51172 46.8027 4.57422 47.0527 4.69922 47.252C4.82812 47.4512 5.03125 47.6289 5.30859 47.7852C5.58984 47.9375 5.96094 48.0977 6.42188 48.2656C6.92578 48.4492 7.35352 48.6445 7.70508 48.8516C8.05664 49.0547 8.32422 49.3047 8.50781 49.6016C8.69141 49.8945 8.7832 50.2676 8.7832 50.7207ZM12.8613 46.4609C13.4082 46.4609 13.877 46.582 14.2676 46.8242C14.6582 47.0664 14.957 47.4062 15.1641 47.8438C15.3711 48.2773 15.4746 48.7852 15.4746 49.3672V49.9707H11.0391C11.0508 50.7246 11.2383 51.2988 11.6016 51.6934C11.9648 52.0879 12.4766 52.2852 13.1367 52.2852C13.543 52.2852 13.9023 52.248 14.2148 52.1738C14.5273 52.0996 14.8516 51.9902 15.1875 51.8457V52.7012C14.8633 52.8457 14.541 52.9512 14.2207 53.0176C13.9043 53.084 13.5293 53.1172 13.0957 53.1172C12.4785 53.1172 11.9395 52.9922 11.4785 52.7422C11.0215 52.4883 10.666 52.1172 10.4121 51.6289C10.1582 51.1406 10.0312 50.543 10.0312 49.8359C10.0312 49.1445 10.1465 48.5469 10.377 48.043C10.6113 47.5352 10.9395 47.1445 11.3613 46.8711C11.7871 46.5977 12.2871 46.4609 12.8613 46.4609ZM12.8496 47.2578C12.3301 47.2578 11.916 47.4277 11.6074 47.7676C11.2988 48.1074 11.1152 48.582 11.0566 49.1914H14.4551C14.4512 48.8086 14.3906 48.4727 14.2734 48.1836C14.1602 47.8906 13.9863 47.6641 13.752 47.5039C13.5176 47.3398 13.2168 47.2578 12.8496 47.2578ZM19.5293 46.4727C20.2949 46.4727 20.8633 46.6445 21.2344 46.9883C21.6055 47.332 21.791 47.8809 21.791 48.6348V53H21.082L20.8945 52.0508H20.8477C20.668 52.2852 20.4805 52.4824 20.2852 52.6426C20.0898 52.7988 19.8633 52.918 19.6055 53C19.3516 53.0781 19.0391 53.1172 18.668 53.1172C18.2773 53.1172 17.9297 53.0488 17.625 52.9121C17.3242 52.7754 17.0859 52.5684 16.9102 52.291C16.7383 52.0137 16.6523 51.6621 16.6523 51.2363C16.6523 50.5957 16.9062 50.1035 17.4141 49.7598C17.9219 49.416 18.6953 49.2285 19.7344 49.1973L20.8418 49.1504V48.7578C20.8418 48.2031 20.7227 47.8145 20.4844 47.5918C20.2461 47.3691 19.9102 47.2578 19.4766 47.2578C19.1406 47.2578 18.8203 47.3066 18.5156 47.4043C18.2109 47.502 17.9219 47.6172 17.6484 47.75L17.3496 47.0117C17.6387 46.8633 17.9707 46.7363 18.3457 46.6309C18.7207 46.5254 19.1152 46.4727 19.5293 46.4727ZM20.8301 49.8359L19.8516 49.877C19.0508 49.9082 18.4863 50.0391 18.1582 50.2695C17.8301 50.5 17.666 50.8262 17.666 51.248C17.666 51.6152 17.7773 51.8867 18 52.0625C18.2227 52.2383 18.5176 52.3262 18.8848 52.3262C19.4551 52.3262 19.9219 52.168 20.2852 51.8516C20.6484 51.5352 20.8301 51.0605 20.8301 50.4277V49.8359ZM26.7129 46.4609C26.8418 46.4609 26.9766 46.4688 27.1172 46.4844C27.2578 46.4961 27.3828 46.5137 27.4922 46.5371L27.3691 47.4395C27.2637 47.4121 27.1465 47.3906 27.0176 47.375C26.8887 47.3594 26.7676 47.3516 26.6543 47.3516C26.3965 47.3516 26.1523 47.4043 25.9219 47.5098C25.6953 47.6113 25.4961 47.7598 25.3242 47.9551C25.1523 48.1465 25.0176 48.3789 24.9199 48.6523C24.8223 48.9219 24.7734 49.2227 24.7734 49.5547V53H23.7949V46.5781H24.6035L24.709 47.7617H24.75C24.8828 47.5234 25.043 47.3066 25.2305 47.1113C25.418 46.9121 25.6348 46.7539 25.8809 46.6367C26.1309 46.5195 26.4082 46.4609 26.7129 46.4609ZM31.2773 53.1172C30.6992 53.1172 30.1895 52.998 29.748 52.7598C29.3066 52.5215 28.9629 52.1582 28.7168 51.6699C28.4707 51.1816 28.3477 50.5664 28.3477 49.8242C28.3477 49.0469 28.4766 48.4121 28.7344 47.9199C28.9961 47.4238 29.3555 47.0566 29.8125 46.8184C30.2695 46.5801 30.7891 46.4609 31.3711 46.4609C31.6914 46.4609 32 46.4941 32.2969 46.5605C32.5977 46.623 32.8438 46.7031 33.0352 46.8008L32.7422 47.6152C32.5469 47.5371 32.3203 47.4668 32.0625 47.4043C31.8086 47.3418 31.5703 47.3105 31.3477 47.3105C30.9023 47.3105 30.5312 47.4062 30.2344 47.5977C29.9414 47.7891 29.7207 48.0703 29.5723 48.4414C29.4277 48.8125 29.3555 49.2695 29.3555 49.8125C29.3555 50.332 29.4258 50.7754 29.5664 51.1426C29.7109 51.5098 29.9238 51.791 30.2051 51.9863C30.4902 52.1777 30.8457 52.2734 31.2715 52.2734C31.6113 52.2734 31.918 52.2383 32.1914 52.168C32.4648 52.0938 32.7129 52.0078 32.9355 51.9102V52.7773C32.7207 52.8867 32.4805 52.9707 32.2148 53.0293C31.9531 53.0879 31.6406 53.1172 31.2773 53.1172ZM35.4316 43.8828V46.6074C35.4316 46.7637 35.4277 46.9219 35.4199 47.082C35.4121 47.2383 35.3984 47.3828 35.3789 47.5156H35.4434C35.5762 47.2891 35.7441 47.0996 35.9473 46.9473C36.1543 46.791 36.3887 46.6738 36.6504 46.5957C36.9121 46.5137 37.1895 46.4727 37.4824 46.4727C37.998 46.4727 38.4277 46.5547 38.7715 46.7188C39.1191 46.8828 39.3789 47.1367 39.5508 47.4805C39.7266 47.8242 39.8145 48.2695 39.8145 48.8164V53H38.8535V48.8809C38.8535 48.3457 38.7305 47.9453 38.4844 47.6797C38.2422 47.4141 37.8691 47.2812 37.3652 47.2812C36.8887 47.2812 36.5078 47.373 36.2227 47.5566C35.9414 47.7363 35.7383 48.002 35.6133 48.3535C35.4922 48.7051 35.4316 49.1348 35.4316 49.6426V53H34.459V43.8828H35.4316ZM46.793 43.877H47.6074V55.9062H46.793V43.877ZM58.459 45.1895C57.9863 45.1895 57.5605 45.2715 57.1816 45.4355C56.8066 45.5957 56.4863 45.8301 56.2207 46.1387C55.959 46.4434 55.7578 46.8125 55.6172 47.2461C55.4766 47.6797 55.4062 48.168 55.4062 48.7109C55.4062 49.4297 55.5176 50.0547 55.7402 50.5859C55.9668 51.1133 56.3027 51.5215 56.748 51.8105C57.1973 52.0996 57.7578 52.2441 58.4297 52.2441C58.8125 52.2441 59.1719 52.2129 59.5078 52.1504C59.8477 52.084 60.1777 52.002 60.498 51.9043V52.7715C60.1855 52.8887 59.8574 52.9746 59.5137 53.0293C59.1699 53.0879 58.7617 53.1172 58.2891 53.1172C57.418 53.1172 56.6895 52.9375 56.1035 52.5781C55.5215 52.2148 55.084 51.7031 54.791 51.043C54.502 50.3828 54.3574 49.6035 54.3574 48.7051C54.3574 48.0566 54.4473 47.4648 54.627 46.9297C54.8105 46.3906 55.0762 45.9258 55.4238 45.5352C55.7754 45.1445 56.2051 44.8438 56.7129 44.6328C57.2246 44.418 57.8105 44.3105 58.4707 44.3105C58.9043 44.3105 59.3223 44.3535 59.7246 44.4395C60.127 44.5254 60.4902 44.6484 60.8145 44.8086L60.416 45.6523C60.1426 45.5273 59.8418 45.4199 59.5137 45.3301C59.1895 45.2363 58.8379 45.1895 58.459 45.1895ZM67.7461 49.7773C67.7461 50.3047 67.6777 50.7754 67.541 51.1895C67.4043 51.6035 67.207 51.9531 66.9492 52.2383C66.6914 52.5234 66.3789 52.7422 66.0117 52.8945C65.6484 53.043 65.2363 53.1172 64.7754 53.1172C64.3457 53.1172 63.9512 53.043 63.5918 52.8945C63.2363 52.7422 62.9277 52.5234 62.666 52.2383C62.4082 51.9531 62.207 51.6035 62.0625 51.1895C61.9219 50.7754 61.8516 50.3047 61.8516 49.7773C61.8516 49.0742 61.9707 48.4766 62.209 47.9844C62.4473 47.4883 62.7871 47.1113 63.2285 46.8535C63.6738 46.5918 64.2031 46.4609 64.8164 46.4609C65.4023 46.4609 65.9141 46.5918 66.3516 46.8535C66.793 47.1152 67.1348 47.4941 67.377 47.9902C67.623 48.4824 67.7461 49.0781 67.7461 49.7773ZM62.8594 49.7773C62.8594 50.293 62.9277 50.7402 63.0645 51.1191C63.2012 51.498 63.4121 51.791 63.6973 51.998C63.9824 52.2051 64.3496 52.3086 64.7988 52.3086C65.2441 52.3086 65.6094 52.2051 65.8945 51.998C66.1836 51.791 66.3965 51.498 66.5332 51.1191C66.6699 50.7402 66.7383 50.293 66.7383 49.7773C66.7383 49.2656 66.6699 48.8242 66.5332 48.4531C66.3965 48.0781 66.1855 47.7891 65.9004 47.5859C65.6152 47.3828 65.2461 47.2812 64.793 47.2812C64.125 47.2812 63.6348 47.502 63.3223 47.9434C63.0137 48.3848 62.8594 48.9961 62.8594 49.7773ZM76.4004 46.4609C77.1074 46.4609 77.6406 46.6465 78 47.0176C78.3594 47.3848 78.5391 47.9766 78.5391 48.793V53H77.5781V48.8398C77.5781 48.3203 77.4648 47.9316 77.2383 47.6738C77.0156 47.4121 76.6836 47.2812 76.2422 47.2812C75.6211 47.2812 75.1699 47.4609 74.8887 47.8203C74.6074 48.1797 74.4668 48.709 74.4668 49.4082V53H73.5V48.8398C73.5 48.4922 73.4492 48.2031 73.3477 47.9727C73.25 47.7422 73.1016 47.5703 72.9023 47.457C72.707 47.3398 72.459 47.2812 72.1582 47.2812C71.7324 47.2812 71.3906 47.3691 71.1328 47.5449C70.875 47.7207 70.6875 47.9824 70.5703 48.3301C70.457 48.6738 70.4004 49.0977 70.4004 49.6016V53H69.4277V46.5781H70.2129L70.3594 47.4863H70.4121C70.541 47.2637 70.7031 47.0762 70.8984 46.9238C71.0938 46.7715 71.3125 46.6562 71.5547 46.5781C71.7969 46.5 72.0547 46.4609 72.3281 46.4609C72.8164 46.4609 73.2246 46.5527 73.5527 46.7363C73.8848 46.916 74.125 47.1914 74.2734 47.5625H74.3262C74.5371 47.1914 74.8262 46.916 75.1934 46.7363C75.5605 46.5527 75.9629 46.4609 76.4004 46.4609ZM83.5547 46.4609C84.3555 46.4609 84.9941 46.7363 85.4707 47.2871C85.9473 47.8379 86.1855 48.666 86.1855 49.7715C86.1855 50.502 86.0762 51.1152 85.8574 51.6113C85.6387 52.1074 85.3301 52.4824 84.9316 52.7363C84.5371 52.9902 84.0703 53.1172 83.5312 53.1172C83.1914 53.1172 82.8926 53.0723 82.6348 52.9824C82.377 52.8926 82.1562 52.7715 81.9727 52.6191C81.7891 52.4668 81.6367 52.3008 81.5156 52.1211H81.4453C81.457 52.2734 81.4707 52.457 81.4863 52.6719C81.5059 52.8867 81.5156 53.0742 81.5156 53.2344V55.8711H80.5371V46.5781H81.3398L81.4688 47.5273H81.5156C81.6406 47.332 81.793 47.1543 81.9727 46.9941C82.1523 46.8301 82.3711 46.7012 82.6289 46.6074C82.8906 46.5098 83.1992 46.4609 83.5547 46.4609ZM83.3848 47.2812C82.9395 47.2812 82.5801 47.3672 82.3066 47.5391C82.0371 47.7109 81.8398 47.9688 81.7148 48.3125C81.5898 48.6523 81.5234 49.0801 81.5156 49.5957V49.7832C81.5156 50.3262 81.5742 50.7852 81.6914 51.1602C81.8125 51.5352 82.0098 51.8203 82.2832 52.0156C82.5605 52.2109 82.9316 52.3086 83.3965 52.3086C83.7949 52.3086 84.127 52.2012 84.3926 51.9863C84.6582 51.7715 84.8555 51.4727 84.9844 51.0898C85.1172 50.7031 85.1836 50.2598 85.1836 49.7598C85.1836 49.002 85.0352 48.4004 84.7383 47.9551C84.4453 47.5059 83.9941 47.2812 83.3848 47.2812ZM90.2871 46.4727C91.0527 46.4727 91.6211 46.6445 91.9922 46.9883C92.3633 47.332 92.5488 47.8809 92.5488 48.6348V53H91.8398L91.6523 52.0508H91.6055C91.4258 52.2852 91.2383 52.4824 91.043 52.6426C90.8477 52.7988 90.6211 52.918 90.3633 53C90.1094 53.0781 89.7969 53.1172 89.4258 53.1172C89.0352 53.1172 88.6875 53.0488 88.3828 52.9121C88.082 52.7754 87.8438 52.5684 87.668 52.291C87.4961 52.0137 87.4102 51.6621 87.4102 51.2363C87.4102 50.5957 87.6641 50.1035 88.1719 49.7598C88.6797 49.416 89.4531 49.2285 90.4922 49.1973L91.5996 49.1504V48.7578C91.5996 48.2031 91.4805 47.8145 91.2422 47.5918C91.0039 47.3691 90.668 47.2578 90.2344 47.2578C89.8984 47.2578 89.5781 47.3066 89.2734 47.4043C88.9688 47.502 88.6797 47.6172 88.4062 47.75L88.1074 47.0117C88.3965 46.8633 88.7285 46.7363 89.1035 46.6309C89.4785 46.5254 89.873 46.4727 90.2871 46.4727ZM91.5879 49.8359L90.6094 49.877C89.8086 49.9082 89.2441 50.0391 88.916 50.2695C88.5879 50.5 88.4238 50.8262 88.4238 51.248C88.4238 51.6152 88.5352 51.8867 88.7578 52.0625C88.9805 52.2383 89.2754 52.3262 89.6426 52.3262C90.2129 52.3262 90.6797 52.168 91.043 51.8516C91.4062 51.5352 91.5879 51.0605 91.5879 50.4277V49.8359ZM97.4707 46.4609C97.5996 46.4609 97.7344 46.4688 97.875 46.4844C98.0156 46.4961 98.1406 46.5137 98.25 46.5371L98.127 47.4395C98.0215 47.4121 97.9043 47.3906 97.7754 47.375C97.6465 47.3594 97.5254 47.3516 97.4121 47.3516C97.1543 47.3516 96.9102 47.4043 96.6797 47.5098C96.4531 47.6113 96.2539 47.7598 96.082 47.9551C95.9102 48.1465 95.7754 48.3789 95.6777 48.6523C95.5801 48.9219 95.5312 49.2227 95.5312 49.5547V53H94.5527V46.5781H95.3613L95.4668 47.7617H95.5078C95.6406 47.5234 95.8008 47.3066 95.9883 47.1113C96.1758 46.9121 96.3926 46.7539 96.6387 46.6367C96.8887 46.5195 97.166 46.4609 97.4707 46.4609ZM101.936 46.4609C102.482 46.4609 102.951 46.582 103.342 46.8242C103.732 47.0664 104.031 47.4062 104.238 47.8438C104.445 48.2773 104.549 48.7852 104.549 49.3672V49.9707H100.113C100.125 50.7246 100.312 51.2988 100.676 51.6934C101.039 52.0879 101.551 52.2852 102.211 52.2852C102.617 52.2852 102.977 52.248 103.289 52.1738C103.602 52.0996 103.926 51.9902 104.262 51.8457V52.7012C103.938 52.8457 103.615 52.9512 103.295 53.0176C102.979 53.084 102.604 53.1172 102.17 53.1172C101.553 53.1172 101.014 52.9922 100.553 52.7422C100.096 52.4883 99.7402 52.1172 99.4863 51.6289C99.2324 51.1406 99.1055 50.543 99.1055 49.8359C99.1055 49.1445 99.2207 48.5469 99.4512 48.043C99.6855 47.5352 100.014 47.1445 100.436 46.8711C100.861 46.5977 101.361 46.4609 101.936 46.4609ZM101.924 47.2578C101.404 47.2578 100.99 47.4277 100.682 47.7676C100.373 48.1074 100.189 48.582 100.131 49.1914H103.529C103.525 48.8086 103.465 48.4727 103.348 48.1836C103.234 47.8906 103.061 47.6641 102.826 47.5039C102.592 47.3398 102.291 47.2578 101.924 47.2578ZM111.176 43.877H111.99V55.9062H111.176V43.877ZM124.014 50.7207C124.014 51.2285 123.887 51.6621 123.633 52.0215C123.383 52.377 123.031 52.6484 122.578 52.8359C122.125 53.0234 121.592 53.1172 120.979 53.1172C120.654 53.1172 120.348 53.1016 120.059 53.0703C119.77 53.0391 119.504 52.9941 119.262 52.9355C119.02 52.877 118.807 52.8047 118.623 52.7188V51.7637C118.916 51.8848 119.273 51.998 119.695 52.1035C120.117 52.2051 120.559 52.2559 121.02 52.2559C121.449 52.2559 121.812 52.1992 122.109 52.0859C122.406 51.9688 122.631 51.8027 122.783 51.5879C122.939 51.3691 123.018 51.1074 123.018 50.8027C123.018 50.5098 122.953 50.2656 122.824 50.0703C122.695 49.8711 122.48 49.6914 122.18 49.5312C121.883 49.3672 121.477 49.1934 120.961 49.0098C120.598 48.8809 120.277 48.7402 120 48.5879C119.723 48.4316 119.49 48.2559 119.303 48.0605C119.115 47.8652 118.973 47.6387 118.875 47.3809C118.781 47.123 118.734 46.8281 118.734 46.4961C118.734 46.0391 118.85 45.6484 119.08 45.3242C119.314 44.9961 119.637 44.7461 120.047 44.5742C120.461 44.3984 120.936 44.3105 121.471 44.3105C121.928 44.3105 122.35 44.3535 122.736 44.4395C123.127 44.5254 123.484 44.6406 123.809 44.7852L123.498 45.6406C123.189 45.5117 122.861 45.4043 122.514 45.3184C122.17 45.2324 121.814 45.1895 121.447 45.1895C121.08 45.1895 120.77 45.2441 120.516 45.3535C120.266 45.459 120.074 45.6094 119.941 45.8047C119.809 46 119.742 46.2324 119.742 46.502C119.742 46.8027 119.805 47.0527 119.93 47.252C120.059 47.4512 120.262 47.6289 120.539 47.7852C120.82 47.9375 121.191 48.0977 121.652 48.2656C122.156 48.4492 122.584 48.6445 122.936 48.8516C123.287 49.0547 123.555 49.3047 123.738 49.6016C123.922 49.8945 124.014 50.2676 124.014 50.7207ZM128.021 46.4727C128.787 46.4727 129.355 46.6445 129.727 46.9883C130.098 47.332 130.283 47.8809 130.283 48.6348V53H129.574L129.387 52.0508H129.34C129.16 52.2852 128.973 52.4824 128.777 52.6426C128.582 52.7988 128.355 52.918 128.098 53C127.844 53.0781 127.531 53.1172 127.16 53.1172C126.77 53.1172 126.422 53.0488 126.117 52.9121C125.816 52.7754 125.578 52.5684 125.402 52.291C125.23 52.0137 125.145 51.6621 125.145 51.2363C125.145 50.5957 125.398 50.1035 125.906 49.7598C126.414 49.416 127.188 49.2285 128.227 49.1973L129.334 49.1504V48.7578C129.334 48.2031 129.215 47.8145 128.977 47.5918C128.738 47.3691 128.402 47.2578 127.969 47.2578C127.633 47.2578 127.312 47.3066 127.008 47.4043C126.703 47.502 126.414 47.6172 126.141 47.75L125.842 47.0117C126.131 46.8633 126.463 46.7363 126.838 46.6309C127.213 46.5254 127.607 46.4727 128.021 46.4727ZM129.322 49.8359L128.344 49.877C127.543 49.9082 126.979 50.0391 126.65 50.2695C126.322 50.5 126.158 50.8262 126.158 51.248C126.158 51.6152 126.27 51.8867 126.492 52.0625C126.715 52.2383 127.01 52.3262 127.377 52.3262C127.947 52.3262 128.414 52.168 128.777 51.8516C129.141 51.5352 129.322 51.0605 129.322 50.4277V49.8359ZM133.699 53L131.262 46.5781H132.305L133.717 50.4629C133.814 50.7285 133.914 51.0215 134.016 51.3418C134.117 51.6621 134.188 51.9199 134.227 52.1152H134.268C134.314 51.9199 134.393 51.6621 134.502 51.3418C134.611 51.0176 134.711 50.7246 134.801 50.4629L136.213 46.5781H137.256L134.812 53H133.699ZM140.76 46.4609C141.307 46.4609 141.775 46.582 142.166 46.8242C142.557 47.0664 142.855 47.4062 143.062 47.8438C143.27 48.2773 143.373 48.7852 143.373 49.3672V49.9707H138.938C138.949 50.7246 139.137 51.2988 139.5 51.6934C139.863 52.0879 140.375 52.2852 141.035 52.2852C141.441 52.2852 141.801 52.248 142.113 52.1738C142.426 52.0996 142.75 51.9902 143.086 51.8457V52.7012C142.762 52.8457 142.439 52.9512 142.119 53.0176C141.803 53.084 141.428 53.1172 140.994 53.1172C140.377 53.1172 139.838 52.9922 139.377 52.7422C138.92 52.4883 138.564 52.1172 138.311 51.6289C138.057 51.1406 137.93 50.543 137.93 49.8359C137.93 49.1445 138.045 48.5469 138.275 48.043C138.51 47.5352 138.838 47.1445 139.26 46.8711C139.686 46.5977 140.186 46.4609 140.76 46.4609ZM140.748 47.2578C140.229 47.2578 139.814 47.4277 139.506 47.7676C139.197 48.1074 139.014 48.582 138.955 49.1914H142.354C142.35 48.8086 142.289 48.4727 142.172 48.1836C142.059 47.8906 141.885 47.6641 141.65 47.5039C141.416 47.3398 141.115 47.2578 140.748 47.2578Z"/></svg>